<svg width="277" height="242" viewBox="0 0 277 242" fill="none" xmlns="http://www.w3.org/2000/svg">
<path d="M99.1045 45.8944C99.1045 74.4032 118.175 88.4893 141.699 88.4893C169.773 88.4893 184.294 69.4189 184.294 45.8944C184.294 22.3699 169.773 3.29956 141.699 3.29956C118.175 3.29955 99.1045 17.3857 99.1045 45.8944Z" fill="#141353"/>
<path d="M184.814 28.7675C182.062 23.1185 182.298 16.7523 175.995 10.9069C169.443 5.65192 167.549 6.27124 159.305 2.60237C152.984 0.103781 146.221 0.0757709 141.699 0.121296C140.104 0.130243 138.763 0.138167 137.73 0.0332959C133.7 -0.276009 133.517 1.64942 128.037 2.46703C122.533 3.48554 119.328 5.2034 115.536 8.32562C111.173 10.9781 102.333 22.8412 100.434 27.9677C97.7498 32.8202 98.2914 39.2584 98.4914 42.7987C98.5389 43.9268 98.666 44.7909 98.808 45.4736C98.8685 45.7612 98.9994 45.8945 99.128 45.8944C99.1281 45.8944 99.1282 45.8944 99.1282 45.8944C99.2886 45.8943 99.4454 45.6889 99.4688 45.3248C99.5829 43.5773 99.9383 40.9428 100.941 38.0183C103.004 32.7053 101.729 31.6777 105.357 25.0228C109.461 18.6996 113.066 16.106 119.989 11.1603C127.483 6.81276 130.123 8.69581 141.699 6.6358C141.842 6.61724 141.985 6.59858 142.13 6.57984C154.515 5.64298 155.917 9.07757 165.008 15.095C174.307 21.3577 180.442 35.7357 180.257 43.1504C180.286 44.0348 180.29 44.9376 180.268 45.8944C180.127 52.7831 178.449 61.3496 173.975 68.8462C169.018 77.7804 157.092 83.1267 145.865 84.3805C144.548 84.5678 143.169 84.7118 141.699 84.8029C130.631 85.9671 117.43 81.0744 112.421 76.4159C106.671 71.4122 105.424 69.533 103.016 62.5119C101.739 58.4187 100.49 52.6493 99.5896 47.5638C99.1468 44.9881 98.5622 45.5606 98.3612 48.2039C98.1024 52.0913 98.8745 55.2238 98.5905 57.3427C98.0976 61.5851 98.0598 63.712 101.034 68.1945C104.111 72.5001 104.196 75.5133 106.472 77.8262C109.096 79.6014 108.446 80.6975 122.34 88.1518C130.141 91.6426 136.694 92.3131 141.699 92.5418C146.007 92.698 149.349 92.3997 152.123 92.0043C158.181 91.4398 170.327 85.7976 177.005 78.1243C183.955 71.9437 189.044 55.1092 188.726 45.8944C188.77 44.7095 188.789 43.6634 188.805 42.743C188.691 34.6408 187.303 34.697 184.814 28.7675Z" fill="#141353"/>
<path d="M270.049 174.188C265.615 145.6 244.676 135.019 221.429 138.624C190.904 143.359 182.26 163.997 185.866 187.244C190.592 217.721 211.239 226.413 234.486 222.808C257.732 219.202 274.173 200.78 270.049 174.188Z" fill="#141353"/>
<path d="M187.459 204.101C190.82 209.407 191.335 215.908 198.569 220.874C205.958 225.15 207.784 224.165 216.533 226.384C223.538 227.837 230.513 226.622 234.973 225.949C236.274 225.756 237.372 225.601 238.272 225.556C242.339 225.252 242.231 223.322 247.539 221.639C252.844 219.743 255.725 217.519 258.989 213.839C262.845 210.511 269.978 197.543 271.226 192.195C273.266 187.004 271.851 180.655 271.122 177.17C270.908 176.051 270.651 175.214 270.407 174.559C270.303 174.283 270.153 174.172 270.026 174.191C270.026 174.191 270.026 174.191 270.026 174.191C269.867 174.216 269.744 174.443 269.776 174.807C269.93 176.554 269.97 179.227 269.384 182.27C268.072 187.812 269.459 188.676 266.725 195.775C263.475 202.626 260.245 205.727 254.137 211.746C247.526 217.17 244.551 215.891 233.962 219.434C233.631 219.527 233.292 219.623 232.945 219.72C220.752 222.496 218.735 219.449 208.786 215.039C198.615 210.513 191.156 196.669 190.226 189.169C190.087 188.371 189.958 187.525 189.839 186.628C188.919 179.643 188.899 170.677 192.007 162.478C195.28 152.803 206.618 146.235 217.714 143.346C219.064 142.951 220.467 142.59 221.993 142.257C232.787 139.414 246.544 142.106 252.211 145.926C258.689 149.99 260.209 151.674 263.655 158.281C265.537 162.15 267.643 167.698 269.313 172.605C270.147 175.094 270.636 174.435 270.429 171.783C270.09 167.888 268.853 164.895 268.814 162.752C268.66 158.47 268.379 156.354 264.756 152.35C261.053 148.535 260.5 145.564 257.88 143.618C256.562 142.703 255.749 142.471 253.642 141.353C251.5 140.333 248.139 138.083 240.499 135.899C232.304 133.73 225.774 134.088 220.809 134.626C216.478 135.134 213.165 135.895 210.441 136.663C204.608 138.03 192.998 144.984 187.502 153.808C181.367 161.271 179.862 179.092 181.476 187.925C181.6 188.996 181.719 189.944 181.816 190.758C182.998 198.705 184.308 198.478 187.459 204.101Z" fill="#141353"/>
<path d="M30.2048 150.775C13.5231 167.361 9.05157 189.911 30.033 211.013C46.6198 227.694 72.235 229.118 90.271 211.184C112.64 188.943 102.881 163.455 90.4428 150.946C73.856 134.265 51.2078 129.891 30.2048 150.775Z" fill="#141353"/>
<path d="M102.805 199.354C104.803 193.39 109.329 188.874 108.792 180.35C107.717 172.099 105.915 171.269 102.85 162.872C100.38 156.825 95.9918 151.896 92.699 148.703C91.4463 147.472 90.3908 146.442 89.6886 145.576C87.0805 142.515 85.5866 143.744 81.1686 140.416C76.5969 137.211 73.1268 136.117 68.2415 135.617C63.2734 134.342 48.6538 136.612 43.722 138.972C38.4317 140.567 34.3177 145.519 31.9584 148.158C31.2005 148.985 30.6769 149.686 30.294 150.268C30.1329 150.513 30.1306 150.7 30.2213 150.791C30.2214 150.791 30.2215 150.791 30.2215 150.791C30.3347 150.905 30.591 150.871 30.8656 150.631C32.1855 149.478 34.2931 147.872 37.0588 146.498C42.2691 144.156 42.0591 142.534 49.2974 140.302C56.6358 138.649 61.0018 139.329 69.3487 140.776C77.7666 143.093 78.1661 146.328 88.1108 153.265C88.1293 153.279 88.1478 153.293 88.1664 153.307C97.3729 161.365 95.6831 164.912 97.9728 175.735C100.343 186.9 94.9149 201.194 89.434 206.32C88.8194 206.972 88.1596 207.636 87.4308 208.328C82.5116 213.044 75.2372 217.589 66.71 219.455C56.8184 221.895 44.3289 217.574 35.564 210.746C34.6071 210.038 33.6356 209.256 32.6642 208.396C23.8833 201.285 17.664 188.537 17.5924 181.588C17.1955 174.003 17.7284 171.804 21.1042 165.205C23.166 161.44 26.3971 156.516 29.3694 152.289C30.8739 150.169 30.0656 150.149 28.0483 151.869C25.1062 154.427 23.4277 157.161 21.719 158.433C18.3453 161.041 16.8069 162.473 15.6383 167.71C14.6648 172.895 12.537 175.04 12.4475 178.289C12.4541 179.887 12.73 180.684 13.0295 183.045C13.4307 185.372 13.5236 189.436 16.2496 196.871C19.468 205.08 23.7736 210.141 27.1478 213.881C29.9774 216.932 32.5243 218.979 34.7265 220.567C39.5577 224.404 52.0873 228.494 62.0888 228.048C71.1501 228.775 87.0326 221.219 93.3931 214.324C94.3027 213.483 95.0816 212.734 95.7516 212.093C101.42 206.286 100.415 205.339 102.805 199.354Z" fill="#141353"/>
</svg>
